<?xml version="1.0" encoding="UTF-8"?>
<svg id="Layer_2" data-name="Layer 2" xmlns="http://www.w3.org/2000/svg" viewBox="0 0 283.84 283.84">
  <g id="Layer_1-2" data-name="Layer 1">
    <path fill="#cccccc" d="M268.19,213.42C180.77,355.27-46.67,255.18,11.06,93.21c2.56-7.15,9.38-20.96,14.72-26.21,2.23-2.19,6.1-3.7,8.52-5.86,1.19-1.06,8.21-9.19,7.18-10.24l-6.63,1.94,26.55-24.09-1.41-3.86c70.14-56.43,196.79-7.4,217.03,78.46,8.57,35.74,8.07,77.05-8.83,110.06ZM203.06,38.72c-6.26-5.48-14.77-9.55-22.68-12.16l22.68,12.16ZM92.94,62.53l-6.99-1.09c-52.44,28.96-43.39,99.3-14.71,142.57,23.72,39.33,72.55,36.89,113.02,35.87,96.13-21.43,78.26-139.18,15.4-188.09-35.3-26.62-89.99-29.22-127.17-5.01-6.82,12.35-8.08,10.87-18.02,17.95-16.04,17.53-24.93,41.7-26.26,65.3l2.86-13.46,4.26-1.55c3.17-21.33,17.45-50.87,39.05-57.49,1.63.04,9.8,2.6,10.26,2.23-1.93-3.76,1.76-6.21,4.74-7.74l-.31-2.77c3.19,1.58,4.8.07,7.93-.5,2.93,2.72,2.36,6.23,1.85,9.76-1.86,2.51-5.88.31-5.92,4.02ZM58.64,210.25l-10.98-20.83c-3.5-5.81-3.96-13.89-7.82-19.01,1.34,14.83,5.97,31.05,18.8,39.84ZM117.29,251.75c-10.17-1.6-18.69-8.01-28.21-11.07,6.3,4.59,20.87,13.91,28.21,11.07ZM182.03,258.39l-22.68,6.08c7.76,1,15.65-3.1,22.68-6.08Z"/>
    <path fill="#cccccc" d="M203.06,38.72l-22.68-12.16c7.91,2.61,16.43,6.69,22.68,12.16Z"/>
    <path fill="#cccccc" d="M117.3,116.19c2.28.53,2.42-2.7,3.63-4.39,7.73-10.78,27.34-12.07,35.93-1.7,1.38,1.67,3.61,7,4.96,7.22,1.03.21.72-.28.98-.72,5.48-14.59,26.87-17.14,38.77-9.15,19.1,15.12,8.13,53.55,10.89,75.7h-30.98v-47.31c-1.18-6.4-10.82-7.87-14.86-3.24-3.12-1.76-1.31,49.74-1.74,50.54h-30.43c-.28-1.54,1.02-50.48-1.42-49.76-4.12-6.46-15.18-3.41-15.73,4.11,0,0,0,45.65,0,45.65h-30.43v-78.01h30.43v11.07Z"/>
  </g>
</svg>